<svg id="Layer_1" data-name="Layer 1" xmlns="http://www.w3.org/2000/svg" xmlns:xlink="http://www.w3.org/1999/xlink" viewBox="0 0 1280 1024"><defs><style>.cls-1,.cls-10,.cls-2,.cls-3,.cls-4,.cls-5,.cls-6,.cls-7,.cls-8,.cls-9{stroke:#000;stroke-miterlimit:10;}.cls-1{fill:url(#linear-gradient);}.cls-2{fill:url(#linear-gradient-2);}.cls-3{fill:url(#linear-gradient-3);}.cls-4{fill:url(#linear-gradient-4);}.cls-5{fill:url(#linear-gradient-5);}.cls-6{fill:url(#linear-gradient-6);}.cls-7{fill:url(#linear-gradient-7);}.cls-8{fill:url(#linear-gradient-8);}.cls-9{fill:url(#linear-gradient-9);}.cls-10{fill:url(#linear-gradient-10);}</style><linearGradient id="linear-gradient" x1="157" y1="514.47" x2="638.95" y2="514.47" gradientUnits="userSpaceOnUse"><stop offset="0" stop-color="#fff"/><stop offset="1"/></linearGradient><linearGradient id="linear-gradient-2" x1="864.71" y1="822.53" x2="1146.48" y2="822.53" xlink:href="#linear-gradient"/><linearGradient id="linear-gradient-3" x1="676.78" y1="509.52" x2="1158.82" y2="509.52" xlink:href="#linear-gradient"/><linearGradient id="linear-gradient-4" x1="574.36" y1="896.18" x2="651.96" y2="896.18" xlink:href="#linear-gradient"/><linearGradient id="linear-gradient-5" x1="184.54" y1="822.71" x2="451.71" y2="822.71" xlink:href="#linear-gradient"/><linearGradient id="linear-gradient-6" x1="261.36" y1="553.34" x2="410.61" y2="553.34" xlink:href="#linear-gradient"/><linearGradient id="linear-gradient-7" x1="648.77" y1="893.51" x2="735.74" y2="893.51" xlink:href="#linear-gradient"/><linearGradient id="linear-gradient-8" x1="621.33" y1="946.37" x2="685.2" y2="946.37" xlink:href="#linear-gradient"/><linearGradient id="linear-gradient-9" x1="885.57" y1="560.22" x2="1015.08" y2="560.22" xlink:href="#linear-gradient"/><linearGradient id="linear-gradient-10" x1="472.23" y1="284.32" x2="834.55" y2="284.32" xlink:href="#linear-gradient"/></defs><path class="cls-1" d="M300.44,1021c119.69-59,199.27-172.1,202.27-293.76.55-22.36,3.19-129.47-63.88-195.3-53.26-52.29-101.07-30-179.45-103.62-43.26-40.61-63.53-80-71-96.09-16.58-35.59-22.36-67-26.31-88.44C142.19,135.94,185.52,50.29,212.24,7.94A467.64,467.64,0,0,0,232,142.15c16.23,54.36,27.28,91.35,66.91,131.24,21.68,21.83,66.52,59.22,152.08,88.82,5.61,1.94,103.46,48.59,152.08,127.3C680.6,615,609,785.39,604.6,795.52,523,982.7,318.71,1018.15,300.44,1021Z"/><path class="cls-2" d="M866.18,700.25c7.26-3.84,32.31,92.08,117.1,133.38,31.06,15.13,45.28,10.82,83.64,33.35C1113,894,1151.21,934.73,1146,943.19c-5,8.18-50.56-13.69-108-41.28-55.23-26.54-82.85-39.8-101.89-57.16C874.31,788.4,859.5,703.79,866.18,700.25Z"/><path class="cls-3" d="M1015.21,1016C895.54,957.06,816,843.9,813,722.24c-.55-22.36-3.17-129.47,63.91-195.29,53.27-52.28,101.08-30,179.47-103.57,43.27-40.61,63.55-80,71-96.08,16.59-35.59,22.38-67,26.33-88.44C1173.64,131,1130.33,45.36,1103.62,3a467.38,467.38,0,0,1-19.8,134.2c-16.25,54.37-27.3,91.35-66.94,131.24-21.68,21.82-66.53,59.2-152.09,88.78-5.61,1.94-103.48,48.57-152.11,127.27-77.54,125.46-6,295.88-1.58,306C792.65,977.7,997,1013.19,1015.21,1016Z"/><path class="cls-4" d="M652,850.89c-3.82,16.23-12.18,27.41-17.09,33.82-10.06,13.12-16.63,16.6-25.08,25.06-29.81,29.85-29,71.91-32.14,71.31-3.59-.68-10.17-55.11,18.53-93.81,9.05-12.2,17.32-18.72,33.68-40.6a189.62,189.62,0,0,0,20.87-35.4.61.61,0,0,1,0,.13,78.57,78.57,0,0,0-.32,33.55C650.88,847,651.38,849,652,850.89Z"/><path class="cls-5" d="M449.79,691.6c-7.48-3.36-26.7,94-108.84,140.81-30.09,17.14-44.54,13.77-81.47,38.77-44.36,30-80,73.15-74.34,81.26,5.51,7.83,49.63-17,105.28-48.3C343.94,874,370.71,859,388.67,840.4,447,780.11,456.67,694.69,449.79,691.6Z"/><path class="cls-6" d="M410.61,604.48a76.72,76.72,0,0,0-15.44-29.86c-12.48-14.67-27.44-20.2-35.74-23.16-15.23-5.42-22.57-4.67-34.05-7.06C284.87,536,263.94,500,261.57,502.3c-2.67,2.59,19.8,52.19,63.91,68.72,13.91,5.21,24.25,6.06,49.32,15.33A177.51,177.51,0,0,1,410.61,604.48Z"/><path class="cls-7" d="M733.49,976c-3.15.8-4.68-41.23-36.15-69.18-8.91-7.92-15.68-11-26.46-23.47-5.25-6.06-14.16-16.62-18.92-32.44-.58-1.9-1.08-3.87-1.52-5.94a78.57,78.57,0,0,1,.32-33.55l.09-.38a189.15,189.15,0,0,0,22.86,34c17.58,20.83,26.22,26.82,35.95,38.44C740.5,920.33,737,975.08,733.49,976Z"/><ellipse class="cls-8" cx="653.27" cy="946.37" rx="31.94" ry="33.35"/><path class="cls-9" d="M885.57,624.46a77.94,77.94,0,0,1,10.07-32.27c9.76-16.77,23.53-25,31.19-29.47,14-8.19,21.4-8.82,32.28-13.32,38.41-15.88,52.83-55.17,55.55-53.36,3.07,2-10.52,55.05-51.08,79.56-12.79,7.74-22.82,10.5-45.89,24.32A181.07,181.07,0,0,0,885.57,624.46Z"/><path class="cls-10" d="M820.63,293.13c-6.17,10.42-47.33-24.58-85.63-13.43-51.83,15.05-80.41,110-81.73,112v.54c0,2.69-28.58-96.25-81.64-111.7-38.29-11.17-79.49,23.65-85.65,13.25-5.2-8.78,24.73-32.79,16.73-50.81-2.45-5.51-6.57-6.24-12.17-11.11-8.51-7.42-17.79-22.09-18.31-54.48,31.39,39.73,54,46.59,69.38,44.44,18-2.51,30.16-17.86,51.75-13.24,9.65,2.06,16.17,7.1,26,14.69a146.09,146.09,0,0,1,33.89,37.17h0l.12-.26-.12.26a143.27,143.27,0,0,1,34.06-38.21c9.73-7.53,16.29-12.62,26-14.7,21.59-4.6,33.75,10.81,51.72,13.35,15.42,2.18,38-4.65,69.46-44.47-.57,32.49-9.86,47.21-18.39,54.62-5.61,4.89-9.73,5.62-12.18,11.13C796,260.2,825.85,284.34,820.63,293.13Z"/></svg>