<?xml version="1.0" encoding="utf-8"?>
<!-- Generator: Adobe Illustrator 24.1.1, SVG Export Plug-In . SVG Version: 6.00 Build 0)  -->
<svg version="1.1" id="Layer_1" xmlns="http://www.w3.org/2000/svg" xmlns:xlink="http://www.w3.org/1999/xlink" x="0px" y="0px"
	 viewBox="0 0 165 35" style="enable-background:new 0 0 165 35;" xml:space="preserve">
<style type="text/css">
	.st0{fill-rule:evenodd;clip-rule:evenodd;fill:#FFFFFF;}
	.st1{fill:none;}
	.st2{fill:#FFFFFF;}
	.st3{font-family:'SegoeUI-Semibold';}
	.st4{font-size:31px;}
</style>
<path class="st0" d="M1.6,11.1c-0.7,1.3-0.7,2.8-0.7,5.9v2.1c0,5.3,0,7.9,1.6,9.5s4.1,1.6,9.2,1.6h5.4c5.1,0,7.6,0,9.2-1.6
	s1.6-4.3,1.6-9.5V17c0-3.1,0-4.6-0.7-5.9s-2-2.1-4.5-3.7L20,5.7c-2.7-1.7-4.1-2.5-5.6-2.5s-2.9,0.9-5.6,2.6L6.1,7.4
	C3.6,9,2.3,9.8,1.6,11.1z M10.9,21.3c-0.4-0.3-1.1-0.2-1.4,0.2c-0.3,0.4-0.2,1.1,0.2,1.4c1.3,1,2.9,1.5,4.7,1.5s3.3-0.6,4.7-1.5
	c0.4-0.3,0.5-1,0.2-1.4s-1-0.5-1.4-0.2c-1,0.7-2.2,1.2-3.4,1.2S11.9,22.1,10.9,21.3z"/>
<rect x="27.9" y="3.9" class="st1" width="138.2" height="30.6"/>
<text transform="matrix(1 0 0 1 40.3331 27.1068)" class="st2 st3 st4">SogooD</text>
</svg>
